<svg width="38" height="45" viewBox="0 0 38 45" fill="none" xmlns="http://www.w3.org/2000/svg">
<path d="M28.1587 43.1128C28.2006 43.0762 28.215 43.0636 28.2237 43.0479C28.2415 43.0158 28.2355 42.9705 28.3925 42.6797L8.88591 43.2686C8.92547 43.2794 8.96347 43.2861 8.99676 43.2862H27.6981C27.8675 43.2858 28.0311 43.2242 28.1587 43.1128Z" fill="#6CB044"/>
<path fill-rule="evenodd" clip-rule="evenodd" d="M36.1726 7.00949L37.7382 8.14177V8.1454C37.8743 8.24419 37.9656 8.39295 37.9921 8.55902C38.0186 8.72509 37.978 8.89488 37.8794 9.0311C37.7808 9.16731 37.6322 9.25881 37.4661 9.2855C37.3001 9.31219 37.1302 9.27188 36.9939 9.17343L35.9432 8.41283L35.1355 9.5288L36.1535 10.2658C36.2512 10.3365 36.334 10.4257 36.3972 10.5284C36.4603 10.6311 36.5026 10.7453 36.5217 10.8643C36.5407 10.9834 36.5361 11.105 36.508 11.2222C36.48 11.3395 36.4292 11.4501 36.3584 11.5477L35.4183 12.8468L35.6105 12.9864C35.7155 13.0624 35.8032 13.1598 35.8679 13.2721C35.9326 13.3844 35.9727 13.5092 35.9858 13.6381C35.9988 13.7671 35.9844 13.8973 35.9434 14.0203C35.9025 14.1433 35.836 14.2562 35.7483 14.3517L34.5761 15.6209C34.424 15.7865 34.2162 15.8905 33.9923 15.9129C33.7685 15.9353 33.5442 15.8746 33.3622 15.7423L33.1012 15.5538L31.8755 17.0088H33.9805C34.3214 17.009 34.6482 17.1445 34.8892 17.3856C35.1303 17.6266 35.2658 17.9534 35.266 18.2943V20.5144C35.2658 20.8553 35.1303 21.1821 34.8892 21.4232C34.6482 21.6642 34.3214 21.7997 33.9805 21.7999H32.4874L29.6499 42.8492C29.5848 43.3211 29.3515 43.7536 28.9928 44.067C28.6342 44.3805 28.1744 44.5539 27.6981 44.5554H8.99948C8.52412 44.5539 8.06522 44.3812 7.7069 44.0688C7.34858 43.7564 7.11486 43.3254 7.04857 42.8547L4.1476 21.7999H2.64634C2.30548 21.7997 1.97865 21.6642 1.73762 21.4232C1.4966 21.1821 1.36108 20.8553 1.36084 20.5144V18.2943C1.3606 18.1246 1.39394 17.9565 1.45893 17.7998C1.52393 17.643 1.61929 17.5007 1.73954 17.3809C1.85979 17.2612 2.00254 17.1664 2.15957 17.1021C2.3166 17.0377 2.4848 17.0051 2.6545 17.0061H4.01433C4.01365 17.0013 4.01259 16.9965 4.01153 16.9918C4.00976 16.9839 4.00799 16.9759 4.00799 16.968L3.51754 13.456L2.66356 12.6029L2.40248 12.8649C2.34301 12.9244 2.27231 12.9714 2.19449 13.0034C2.11668 13.0353 2.0333 13.0514 1.9492 13.0508C1.8651 13.0514 1.78172 13.0353 1.7039 13.0034C1.62609 12.9714 1.55539 12.9244 1.49592 12.8649L0.372699 11.7399C0.134046 11.5009 0 11.177 0 10.8392C0 10.5015 0.134046 10.1776 0.372699 9.93857L2.85575 7.4546C2.97355 7.33578 3.1138 7.24156 3.26835 7.17744C3.42289 7.11332 3.58864 7.08057 3.75596 7.0811C3.92316 7.08085 4.08876 7.11364 4.24324 7.17758C4.39773 7.24152 4.53806 7.33536 4.65617 7.4537L5.7803 8.57782C5.83924 8.63675 5.88598 8.70671 5.91788 8.78371C5.94977 8.8607 5.96619 8.94323 5.96619 9.02657C5.96619 9.10991 5.94977 9.19244 5.91788 9.26943C5.88598 9.34643 5.83924 9.41639 5.7803 9.47532L5.47298 9.78264L6.25171 10.5677L9.87793 11.1116C10.6993 11.2338 11.4595 11.6175 12.0455 12.2059L12.4707 12.6301L12.4816 1.22748C12.4816 0.902243 12.6106 0.590304 12.8404 0.36016C13.0702 0.130015 13.382 0.000480403 13.7072 0H15.7388C15.9004 0.000356076 16.0602 0.0325723 16.2093 0.0948042C16.3584 0.157036 16.4937 0.248061 16.6076 0.362668C16.7214 0.477275 16.8116 0.613213 16.8728 0.762698C16.934 0.912183 16.9652 1.07228 16.9645 1.23382V4.78752H19.9044V1.23382C19.9044 0.908432 20.0336 0.596356 20.2636 0.366186C20.4936 0.136015 20.8056 0.00658618 21.131 0.00634586H23.1617C23.4872 0.00706638 23.799 0.136927 24.0288 0.367412C24.2586 0.597896 24.3876 0.910161 24.3873 1.23563L24.3728 11.9937L25.5514 10.09L25.4272 9.9993C25.2451 9.86736 25.1178 9.67321 25.0694 9.45366C25.0209 9.2341 25.0547 9.00441 25.1643 8.80809L26.0074 7.29777C26.0707 7.1847 26.1572 7.0863 26.2612 7.00901C26.3652 6.93172 26.4844 6.87729 26.6109 6.8493C26.7374 6.8213 26.8684 6.82038 26.9953 6.84658C27.1222 6.87278 27.2422 6.92551 27.3472 7.00133L27.379 7.02399L28.3218 5.72671C28.4647 5.52965 28.68 5.39737 28.9203 5.35896C29.1607 5.32054 29.4065 5.37912 29.6037 5.52183L34.1083 8.78543L35.2869 7.15363C35.3852 7.01708 35.5338 6.92518 35.6999 6.89815C35.866 6.87111 36.036 6.91116 36.1726 7.00949ZM19.8999 6.05216H16.959L16.9618 6.85718C16.961 6.98302 17.0103 7.10399 17.0986 7.19356C17.187 7.28314 17.3073 7.33398 17.4332 7.33494H19.4276C19.4902 7.33527 19.5522 7.323 19.61 7.29886C19.6678 7.27472 19.7201 7.2392 19.7639 7.19442C19.808 7.14963 19.8428 7.0965 19.8661 7.03813C19.8895 6.97976 19.901 6.91732 19.8999 6.85446V6.05216ZM15.6944 1.26736H13.7498L13.738 13.8957L16.8539 17.0088H23.0991L23.1136 1.27552H21.1691L21.1645 6.8599C21.1648 7.08872 21.1199 7.31534 21.0326 7.52683C20.9453 7.73832 20.8171 7.93053 20.6555 8.0925C20.4939 8.25446 20.3019 8.38301 20.0906 8.47079C19.8793 8.55857 19.6528 8.60388 19.424 8.60412H17.4295C17.2002 8.60328 16.9732 8.55727 16.7616 8.4687C16.5501 8.38012 16.358 8.25073 16.1964 8.08791C16.0349 7.92509 15.907 7.73204 15.8201 7.51978C15.7331 7.30751 15.6889 7.08021 15.6899 6.85084L15.6944 1.26736ZM1.94829 11.5178L2.20575 11.2594L3.66712 9.79895L4.43588 9.0302L3.75959 8.35481L1.27019 10.8397L1.94829 11.5178ZM3.55199 11.7127L3.88832 12.049L4.17117 12.3301L5.19829 11.3102L4.91273 11.0246L4.5764 10.6883L3.55199 11.7127ZM4.7985 13.504L5.25903 16.7948C5.26628 16.8665 5.27988 16.9381 5.2962 17.0088H15.0643L11.1535 13.1015C10.759 12.7053 10.247 12.4471 9.6939 12.3654L6.4303 11.8722L4.7985 13.504ZM28.2237 43.0479C28.2415 43.0158 28.2355 42.9705 28.3925 42.6797L8.88591 43.2686C8.72452 43.2246 8.53706 43.1134 8.53706 43.1134C8.53706 43.1134 8.32661 42.8489 8.30324 42.6815L5.42856 21.7999L8.30324 43.2862L8.88591 43.2686C8.92547 43.2794 8.96347 43.2861 8.99676 43.2862H27.6981C27.8675 43.2858 28.0311 43.2242 28.1587 43.1128C28.2006 43.0762 28.215 43.0636 28.2237 43.0479ZM33.9968 20.5135V18.2943C33.9968 18.29 33.9951 18.2858 33.9921 18.2827C33.989 18.2797 33.9848 18.278 33.9805 18.278H2.64634C2.6442 18.278 2.64207 18.2784 2.6401 18.2792C2.63812 18.28 2.63632 18.2812 2.6348 18.2827C2.63329 18.2843 2.63208 18.2861 2.63126 18.288C2.63044 18.29 2.63002 18.2921 2.63002 18.2943V20.5135C2.63002 20.5157 2.63044 20.5178 2.63126 20.5198C2.63208 20.5218 2.63329 20.5236 2.6348 20.5251C2.63557 20.5258 2.6364 20.5265 2.6373 20.5271C2.63818 20.5277 2.63911 20.5282 2.6401 20.5286C2.64207 20.5294 2.6442 20.5299 2.64634 20.5299H33.9805C33.9827 20.5299 33.9848 20.5294 33.9868 20.5286C33.9887 20.5278 33.9905 20.5266 33.9921 20.5251C33.9936 20.5236 33.9948 20.5218 33.9956 20.5198C33.9964 20.5178 33.9968 20.5157 33.9968 20.5135ZM24.3719 17.0079H30.2165L32.0686 14.8059L26.5821 10.8342L24.3719 14.4115V17.0079ZM26.4262 9.15349L33.8536 14.5303L34.5462 13.7778L26.9248 8.26053L26.4262 9.15349ZM33.0223 11.1071L34.3903 12.098L35.1264 11.0845L29.1431 6.75384L28.4088 7.76827L33.0223 11.1071Z" fill="#6CB044"/>
</svg>
